<svg id="visual" viewBox="0 0 350 600" width="350" height="600" xmlns="http://www.w3.org/2000/svg"
    xmlns:xlink="http://www.w3.org/1999/xlink" version="1.1">
    <path
        d="M22 0L20.3 14.3C18.7 28.7 15.3 57.3 15.2 85.8C15 114.3 18 142.7 20.8 171.2C23.7 199.7 26.3 228.3 24.5 257C22.7 285.7 16.3 314.3 16 343C15.7 371.7 21.3 400.3 24.8 428.8C28.3 457.3 29.7 485.7 29.2 514.2C28.7 542.7 26.3 571.3 25.2 585.7L24 600L0 600L0 585.7C0 571.3 0 542.7 0 514.2C0 485.7 0 457.3 0 428.8C0 400.3 0 371.7 0 343C0 314.3 0 285.7 0 257C0 228.3 0 199.7 0 171.2C0 142.7 0 114.3 0 85.8C0 57.3 0 28.7 0 14.3L0 0Z"
        fill="#24213f"></path>
    <path
        d="M16 0L16.2 14.3C16.3 28.7 16.7 57.3 16.5 85.8C16.3 114.3 15.7 142.7 14.7 171.2C13.7 199.7 12.3 228.3 11.8 257C11.3 285.7 11.7 314.3 13.8 343C16 371.7 20 400.3 19.8 428.8C19.7 457.3 15.3 485.7 15.5 514.2C15.7 542.7 20.3 571.3 22.7 585.7L25 600L0 600L0 585.7C0 571.3 0 542.7 0 514.2C0 485.7 0 457.3 0 428.8C0 400.3 0 371.7 0 343C0 314.3 0 285.7 0 257C0 228.3 0 199.7 0 171.2C0 142.7 0 114.3 0 85.8C0 57.3 0 28.7 0 14.3L0 0Z"
        fill="#2b2656"></path>
    <path
        d="M7 0L6.7 14.3C6.3 28.7 5.7 57.3 7.2 85.8C8.7 114.3 12.3 142.7 13.8 171.2C15.3 199.7 14.7 228.3 12.7 257C10.7 285.7 7.3 314.3 6.3 343C5.3 371.7 6.7 400.3 7.5 428.8C8.3 457.3 8.7 485.7 10.8 514.2C13 542.7 17 571.3 19 585.7L21 600L0 600L0 585.7C0 571.3 0 542.7 0 514.2C0 485.7 0 457.3 0 428.8C0 400.3 0 371.7 0 343C0 314.3 0 285.7 0 257C0 228.3 0 199.7 0 171.2C0 142.7 0 114.3 0 85.8C0 57.3 0 28.7 0 14.3L0 0Z"
        fill="#332c6e"></path>
    <path
        d="M8 0L7.2 14.3C6.3 28.7 4.7 57.3 5.3 85.8C6 114.3 9 142.7 10.7 171.2C12.3 199.7 12.7 228.3 11 257C9.3 285.7 5.7 314.3 4.2 343C2.7 371.7 3.3 400.3 5.3 428.8C7.3 457.3 10.7 485.7 10.3 514.2C10 542.7 6 571.3 4 585.7L2 600L0 600L0 585.7C0 571.3 0 542.7 0 514.2C0 485.7 0 457.3 0 428.8C0 400.3 0 371.7 0 343C0 314.3 0 285.7 0 257C0 228.3 0 199.7 0 171.2C0 142.7 0 114.3 0 85.8C0 57.3 0 28.7 0 14.3L0 0Z"
        fill="#3b3186" opacity="0.3"></path>
</svg>